HIERARCHY
ROOT Hips
{
	OFFSET 0.000000 0.000000 0.000000
	CHANNELS 6 Xposition Yposition Zposition Zrotation Yrotation Xrotation 
	JOINT LHipJoint
	{
		OFFSET 0.000000 0.000000 0.000000
		CHANNELS 3 Zrotation Yrotation Xrotation
		JOINT LeftUpLeg
		{
			OFFSET 1.363060 -1.794630 0.839290
			CHANNELS 3 Zrotation Yrotation Xrotation
			JOINT LeftLeg
			{
				OFFSET 2.448110 -6.726130 0.000000
				CHANNELS 3 Zrotation Yrotation Xrotation
				JOINT LeftFoot
				{
					OFFSET 2.562200 -7.039590 0.000000
					CHANNELS 3 Zrotation Yrotation Xrotation
					JOINT LeftToeBase
					{
						OFFSET 0.157640 -0.433110 2.322550
						CHANNELS 3 Zrotation Yrotation Xrotation
						End Site
						{
							OFFSET 0.000000 0.000000 0.000000
						}
					}
				}
			}
		}
	}
	JOINT RHipJoint
	{
		OFFSET 0.000000 0.000000 0.000000
		CHANNELS 3 Zrotation Yrotation Xrotation
		JOINT RightUpLeg
		{
			OFFSET -1.305520 -1.794630 0.839290
			CHANNELS 3 Zrotation Yrotation Xrotation
			JOINT RightLeg
			{
				OFFSET -2.542530 -6.985550 0.000000
				CHANNELS 3 Zrotation Yrotation Xrotation
				JOINT RightFoot
				{
					OFFSET -2.568260 -7.056230 0.000000
					CHANNELS 3 Zrotation Yrotation Xrotation
					JOINT RightToeBase
					{
						OFFSET -0.164730 -0.452590 2.363150
						CHANNELS 3 Zrotation Yrotation Xrotation
						End Site
						{
							OFFSET 0.000000 0.000000 0.000000
						}
					}
				}
			}
		}
	}
	JOINT LowerBack
	{
		OFFSET 0.000000 0.000000 0.000000
		CHANNELS 3 Zrotation Yrotation Xrotation
		JOINT Spine
		{
			OFFSET 0.028270 2.035590 -0.193380
			CHANNELS 3 Zrotation Yrotation Xrotation
			JOINT Spine1
			{
				OFFSET 0.056720 2.048850 -0.042750
				CHANNELS 3 Zrotation Yrotation Xrotation
				JOINT Neck
				{
					OFFSET 0.000000 0.000000 0.000000
					CHANNELS 3 Zrotation Yrotation Xrotation
					JOINT Neck1
					{
						OFFSET -0.054170 1.746240 0.172020
						CHANNELS 3 Zrotation Yrotation Xrotation
						JOINT Head
						{
							OFFSET 0.104070 1.761360 -0.123970
							CHANNELS 3 Zrotation Yrotation Xrotation
							End Site
							{
								OFFSET 0.000000 0.000000 0.000000
							}
						}
					}
				}
				JOINT LeftShoulder
				{
					OFFSET 0.000000 0.000000 0.000000
					CHANNELS 3 Zrotation Yrotation Xrotation
					JOINT LeftArm
					{
						OFFSET 3.362410 1.200890 -0.311210
						CHANNELS 3 Zrotation Yrotation Xrotation
						JOINT LeftForeArm
						{
							OFFSET 4.983000 -0.000000 -0.000000
							CHANNELS 3 Zrotation Yrotation Xrotation
							JOINT LeftHand
							{
								OFFSET 3.483560 -0.000000 -0.000000
								CHANNELS 3 Zrotation Yrotation Xrotation
								JOINT LeftFingerBase
								{
									OFFSET 0.000000 0.000000 0.000000
									CHANNELS 3 Zrotation Yrotation Xrotation
									JOINT LeftHandIndex1
									{
										OFFSET 0.715260 -0.000000 -0.000000
										CHANNELS 3 Zrotation Yrotation Xrotation
										End Site
										{
											OFFSET 0.000000 0.000000 0.000000
										}
									}
								}
								JOINT LThumb
								{
									OFFSET 0.000000 0.000000 0.000000
									CHANNELS 3 Zrotation Yrotation Xrotation
									End Site
									{
										OFFSET 0.000000 0.000000 0.000000
									}
								}
							}
						}
					}
				}
				JOINT RightShoulder
				{
					OFFSET 0.000000 0.000000 0.000000
					CHANNELS 3 Zrotation Yrotation Xrotation
					JOINT RightArm
					{
						OFFSET -3.136600 1.374050 -0.404650
						CHANNELS 3 Zrotation Yrotation Xrotation
						JOINT RightForeArm
						{
							OFFSET -5.241900 -0.000000 -0.000000
							CHANNELS 3 Zrotation Yrotation Xrotation
							JOINT RightHand
							{
								OFFSET -3.444170 -0.000000 -0.000000
								CHANNELS 3 Zrotation Yrotation Xrotation
								JOINT RightFingerBase
								{
									OFFSET 0.000000 0.000000 0.000000
									CHANNELS 3 Zrotation Yrotation Xrotation
									JOINT RightHandIndex1
									{
										OFFSET -0.622530 -0.000000 -0.000000
										CHANNELS 3 Zrotation Yrotation Xrotation
										End Site
										{
											OFFSET 0.000000 0.000000 0.000000
										}
									}
								}
								JOINT RThumb
								{
									OFFSET 0.000000 0.000000 0.000000
									CHANNELS 3 Zrotation Yrotation Xrotation
									End Site
									{
										OFFSET 0.000000 0.000000 0.000000
									}
								}
							}
						}
					}
				}
			}
		}
	}
}
MOTION
Frames: 10
Frame Time: 0.033333
0.698012 16.749976 -1.246419 0.281519 5.518694 7.715315 -5.201189 4.938099 -4.518657 -16.692934 1.960999 2.673903 0.050632 2.944060 5.151877 0.969915 -9.317942 -28.632515 0.000000 0.000000 0.000000 15.663052 -1.877363 5.538959 -3.935562 -0.023547 -7.728668 7.524315 -10.522273 17.699441 0.219411 4.100600 -20.522557 0.000000 0.000000 0.000000 -9.756983 -1.900135 6.211347 13.134841 -1.558669 11.118314 1.518927 0.956510 -14.729698 16.940273 -3.248307 -24.593938 -11.263679 -1.523785 1.604459 0.000000 0.000000 0.000000 3.215757 8.327513 9.046135 -72.554965 -4.548387 12.561443 -46.310599 -47.646229 0.351805 -2.112415 -10.841894 0.174511 -2.105385 -10.849448 0.000000 0.000000 0.000000 0.000000 0.000000 0.000000 0.000000 -18.451878 -4.523847 7.963780 79.587488 9.227190 7.754542 164.946431 72.768530 -179.962763 -4.362414 7.036921 0.016198 -4.392052 7.025330 0.000000 0.000000 0.000000 0.000000 0.000000 0.000000 0.000000 
0.699337 16.746757 -1.237606 0.381824 5.483086 7.840883 -5.246309 5.018136 -4.677778 -16.792803 1.851032 2.422032 0.116810 3.166772 5.830376 0.997058 -9.434094 -28.883205 0.000000 0.000000 0.000000 15.571279 -2.130960 5.822471 -4.066088 0.169643 -8.015884 7.774170 -10.321020 17.415054 0.200800 4.288439 -20.728804 0.000000 0.000000 0.000000 -9.521830 -1.779750 6.212839 12.844910 -1.446383 10.902755 1.174399 1.005130 -14.803120 16.259631 -3.175713 -23.935615 -10.713833 -1.429647 1.724049 0.000000 0.000000 0.000000 3.133929 8.410247 8.978428 -72.300886 -4.799996 11.919846 -46.862639 -45.618758 0.324369 -2.150923 -10.538057 0.160875 -2.143282 -10.545341 0.000000 0.000000 0.000000 0.000000 0.000000 0.000000 0.000000 -18.029795 -4.913920 7.839526 79.520017 8.827276 8.031343 165.205753 72.893948 -179.958390 -4.338189 7.077489 0.018396 -4.367763 7.066030 0.000000 0.000000 0.000000 0.000000 0.000000 0.000000 0.000000 
0.701883 16.742621 -1.229913 0.472462 5.468381 7.985593 -5.283317 5.067208 -4.845015 -16.886916 1.754423 2.207607 0.163929 3.355607 6.407980 1.020475 -9.536351 -29.113131 0.000000 0.000000 0.000000 15.491661 -2.308547 6.054669 -4.181328 0.369863 -8.264291 7.974977 -10.107293 17.171727 0.177984 4.545439 -21.053033 0.000000 0.000000 0.000000 -9.314455 -1.670641 6.293345 12.585952 -1.321562 10.477694 0.864004 1.037452 -14.742028 15.603784 -3.095760 -23.225044 -10.175832 -1.339881 1.803240 0.000000 0.000000 0.000000 3.076310 8.437423 8.931162 -72.080348 -5.014293 11.426288 -47.217453 -44.008309 0.302624 -2.172574 -10.295608 0.150064 -2.164440 -10.302688 0.000000 0.000000 0.000000 0.000000 0.000000 0.000000 0.000000 -17.624737 -5.269930 7.728476 79.444171 8.462189 8.280834 165.456553 73.020488 -179.954616 -4.317022 7.118972 0.020290 -4.346586 7.107617 0.000000 0.000000 0.000000 0.000000 0.000000 0.000000 0.000000 
0.706875 16.737841 -1.224303 0.554617 5.475685 8.150469 -5.311686 5.082137 -5.022330 -16.975218 1.672772 2.033041 0.175788 3.509478 6.876688 1.039710 -9.623134 -29.317523 0.000000 0.000000 0.000000 15.424489 -2.406795 6.244227 -4.284329 0.589693 -8.476925 8.126979 -9.860153 16.952440 0.147584 4.904209 -21.542057 0.000000 0.000000 0.000000 -9.134469 -1.573669 6.447070 12.355472 -1.186720 9.852492 0.589418 1.054517 -14.548102 14.971905 -3.009112 -22.467003 -9.650337 -1.254240 1.843673 0.000000 0.000000 0.000000 3.047024 8.410881 8.905147 -71.891721 -5.193432 11.073085 -47.432060 -42.806867 0.286430 -2.183829 -10.115460 0.142008 -2.175316 -10.122397 0.000000 0.000000 0.000000 0.000000 0.000000 0.000000 0.000000 -17.238014 -5.591930 7.629763 79.361621 8.133960 8.503308 165.698636 73.147920 -179.951440 -4.298867 7.161314 0.021882 -4.328475 7.150034 0.000000 0.000000 0.000000 0.000000 0.000000 0.000000 0.000000 
0.714175 16.732294 -1.221092 0.626424 5.505150 8.330661 -5.326919 5.061630 -5.208068 -17.059548 1.611721 1.908341 0.151093 3.623306 7.219503 1.054587 -9.694665 -29.495093 0.000000 0.000000 0.000000 15.364760 -2.420904 6.375484 -4.364234 0.821024 -8.642291 8.236677 -9.586549 16.757862 0.110319 5.365099 -22.213158 0.000000 0.000000 0.000000 -8.983118 -1.489750 6.682684 12.153448 -1.042408 9.017709 0.355800 1.056008 -14.208349 14.363265 -2.916356 -21.661924 -9.137466 -1.172541 1.842104 0.000000 0.000000 0.000000 3.055391 8.326738 8.902935 -71.737296 -5.335769 10.869532 -47.537209 -42.058933 0.276193 -2.188429 -10.006027 0.136912 -2.179645 -10.012887 0.000000 0.000000 0.000000 0.000000 0.000000 0.000000 0.000000 -16.872878 -5.875599 7.543710 79.274053 7.850184 8.696120 165.930308 73.275959 -179.948919 -4.284083 7.204545 0.023140 -4.313795 7.193312 0.000000 0.000000 0.000000 0.000000 0.000000 0.000000 0.000000 
0.722263 16.725513 -1.220318 0.681385 5.531159 8.515384 -5.316749 5.029043 -5.396657 -17.151029 1.574461 1.831818 0.105730 3.700637 7.441709 1.069246 -9.753390 -29.655505 0.000000 0.000000 0.000000 15.324592 -2.362099 6.479497 -4.444064 1.061731 -8.762154 8.348703 -9.272523 16.535816 0.068003 5.920408 -23.048239 0.000000 0.000000 0.000000 -8.898897 -1.423478 6.949965 12.048927 -0.905422 8.105679 0.183433 1.053671 -13.836935 13.776141 -2.820453 -20.837645 -8.661133 -1.098798 1.804742 0.000000 0.000000 0.000000 3.031692 8.264054 8.914824 -71.619851 -5.441442 10.703673 -47.597867 -41.410499 0.266996 -2.189616 -9.911317 0.132332 -2.180590 -9.918104 0.000000 0.000000 0.000000 0.000000 0.000000 0.000000 0.000000 -16.436902 -6.153195 7.488232 78.999326 7.388191 9.115016 166.417740 73.634267 -179.942859 -4.277246 7.353041 0.026145 -4.307488 7.341734 0.000000 0.000000 0.000000 0.000000 0.000000 0.000000 0.000000 
0.728652 16.717058 -1.221693 0.715882 5.545684 8.699678 -5.273869 4.988221 -5.585816 -17.256150 1.570976 1.816633 0.063297 3.732693 7.517007 1.084646 -9.799214 -29.799138 0.000000 0.000000 0.000000 15.304485 -2.223969 6.536711 -4.516318 1.294534 -8.822468 8.469923 -8.940092 16.299296 0.025399 6.537438 -24.004277 0.000000 0.000000 0.000000 -8.894748 -1.378976 7.259623 12.058251 -0.775929 7.104245 0.084893 1.045218 -13.428522 13.209267 -2.721069 -19.992478 -8.225152 -1.033157 1.721967 0.000000 0.000000 0.000000 2.972898 8.234605 8.942786 -71.546561 -5.501726 10.583044 -47.612499 -40.883534 0.259017 -2.187451 -9.834765 0.128355 -2.178213 -9.841485 0.000000 0.000000 0.000000 0.000000 0.000000 0.000000 0.000000 -15.914273 -6.426095 7.474549 78.494687 6.722683 9.816523 167.236870 74.298659 -179.932222 -4.271845 7.630327 0.031410 -4.303130 7.618836 0.000000 0.000000 0.000000 0.000000 0.000000 0.000000 0.000000 
0.734028 16.708028 -1.224873 0.728184 5.541685 8.881879 -5.204619 4.942205 -5.766282 -17.364766 1.598584 1.854057 0.014810 3.721876 7.446196 1.099409 -9.825451 -29.912442 0.000000 0.000000 0.000000 15.304115 -2.011080 6.537792 -4.577115 1.506863 -8.822219 8.593068 -8.605420 16.055445 -0.013457 7.176412 -25.013651 0.000000 0.000000 0.000000 -8.965544 -1.359357 7.609743 12.176239 -0.653860 6.016764 0.055037 1.028130 -12.977361 12.658938 -2.616162 -19.127505 -7.822031 -0.974006 1.590820 0.000000 0.000000 0.000000 2.884321 8.247763 8.983630 -71.514703 -5.516999 10.506294 -47.586644 -40.479234 0.252205 -2.182428 -9.776532 0.124957 -2.173007 -9.783188 0.000000 0.000000 0.000000 0.000000 0.000000 0.000000 0.000000 -15.312886 -6.696406 7.511830 77.767250 5.889888 10.801518 168.422720 75.312855 -179.916685 -4.250792 8.030822 0.039092 -4.283585 8.019124 0.000000 0.000000 0.000000 0.000000 0.000000 0.000000 0.000000 
0.738920 16.699468 -1.229927 0.707447 5.503104 9.060119 -5.107602 4.893117 -5.923791 -17.464988 1.664148 1.950842 -0.052329 3.656646 7.180751 1.111409 -9.816927 -29.969642 0.000000 0.000000 0.000000 15.332412 -1.703472 6.451259 -4.618103 1.672854 -8.739349 8.703842 -8.297032 15.827560 -0.043011 7.791249 -26.004526 0.000000 0.000000 0.000000 -9.134343 -1.377523 8.014610 12.444359 -0.540879 4.809714 0.105061 0.995689 -12.453245 12.122996 -2.502219 -18.236638 -7.451536 -0.921237 1.386997 0.000000 0.000000 0.000000 2.761679 8.329858 9.036216 -71.533966 -5.473798 10.485332 -47.512975 -40.240894 0.246807 -2.174245 -9.743060 0.122261 -2.164669 -9.749655 0.000000 0.000000 0.000000 0.000000 0.000000 0.000000 0.000000 -14.617487 -6.966013 7.634518 76.753586 4.887463 12.160698 170.166948 76.866852 -179.894182 -4.182072 8.582920 0.050221 -4.216835 8.571146 0.000000 0.000000 0.000000 0.000000 0.000000 0.000000 0.000000 
0.747387 16.695238 -1.231948 0.685219 5.471039 9.204884 -5.045729 4.867266 -6.035011 -17.518783 1.685816 1.975907 -0.145561 3.635496 7.057181 1.120495 -9.807023 -30.005513 0.000000 0.000000 0.000000 15.319945 -1.441825 6.349114 -4.603824 1.845114 -8.671965 8.803938 -8.007327 15.641348 -0.068450 8.382685 -26.954082 0.000000 0.000000 0.000000 -9.225301 -1.400162 8.352832 12.614085 -0.450194 3.784169 0.132236 0.959124 -11.974677 11.622597 -2.387098 -17.411966 -7.081773 -0.868636 1.204150 0.000000 0.000000 0.000000 2.666838 8.417130 9.070197 -71.531158 -5.440626 10.496095 -47.441222 -40.103191 0.243196 -2.167180 -9.725905 0.120454 -2.157487 -9.732460 0.000000 0.000000 0.000000 0.000000 0.000000 0.000000 0.000000 -14.009451 -7.228805 7.752100 75.888278 4.112515 13.328641 171.796928 78.333999 -179.874134 -4.076092 9.037206 0.060146 -4.112269 9.025653 0.000000 0.000000 0.000000 0.000000 0.000000 0.000000 0.000000 
